<svg xmlns="http://www.w3.org/2000/svg" viewBox="0 0 64 64" role="img" aria-label="bilibili 小电视">
  <path fill="#ff2f86" d="M20.7 8.4a2.8 2.8 0 0 1 4 0l7.2 7.2 7.4-7.3a2.8 2.8 0 0 1 4 4L38 17.5h10.4c5.2 0 9.4 4.2 9.4 9.4v20.7c0 5.2-4.2 9.4-9.4 9.4H15.6c-5.2 0-9.4-4.2-9.4-9.4V26.9c0-5.2 4.2-9.4 9.4-9.4h10.3l-5.2-5.2a2.8 2.8 0 0 1 0-3.9Z"/>
  <path fill="#fff" d="M15.7 25.1h32.6c2.5 0 4.6 2.1 4.6 4.6v16.8c0 2.5-2.1 4.6-4.6 4.6H15.7a4.6 4.6 0 0 1-4.6-4.6V29.7c0-2.5 2.1-4.6 4.6-4.6Z"/>
  <path fill="#ff2f86" d="M21.2 34.4a2.7 2.7 0 1 1 5.4 0v4.7a2.7 2.7 0 0 1-5.4 0v-4.7Zm16.2 0a2.7 2.7 0 1 1 5.4 0v4.7a2.7 2.7 0 0 1-5.4 0v-4.7Z"/>
  <path fill="#ff8fbd" d="M26 44.3h12a2 2 0 0 1 0 4H26a2 2 0 0 1 0-4Z"/>
</svg>
